<?xml version="1.0" encoding="utf-8"?>
<!-- Generator: Adobe Illustrator 27.8.1, SVG Export Plug-In . SVG Version: 6.00 Build 0)  -->
<svg version="1.1" xmlns="http://www.w3.org/2000/svg" xmlns:xlink="http://www.w3.org/1999/xlink" x="0px" y="0px"
	 viewBox="0 0 484.37 702" style="enable-background:new 0 0 484.37 702;" xml:space="preserve">
<style type="text/css">
	.st0{fill:url(#SVGID_1_);}
	.st1{fill:none;}
	.st2{fill:#FFFFFF;}
	.st3{fill:url(#SVGID_00000029735647529548422200000009651380034711662001_);}
	.st4{fill:url(#SVGID_00000053540649484140579150000013653400310451137691_);}
	.st5{fill:url(#SVGID_00000160176570141154435420000007999619241049537210_);}
	.st6{fill:url(#SVGID_00000177483940392869054510000000866457297918820756_);}
	.st7{fill:#00A79D;}
	.st8{opacity:0.5;}
</style>
<g id="Layer_1">
</g>
<g id="background">
	<linearGradient id="SVGID_1_" gradientUnits="userSpaceOnUse" x1="241.5896" y1="701.2924" x2="241.5896" y2="-0.043">
		<stop  offset="0" style="stop-color:#FFFFFF"/>
		<stop  offset="0.1053" style="stop-color:#F0F6F5"/>
		<stop  offset="0.297" style="stop-color:#D0E5E3"/>
		<stop  offset="0.5533" style="stop-color:#9DCDCA"/>
		<stop  offset="0.8611" style="stop-color:#4FB2AB"/>
		<stop  offset="1" style="stop-color:#00A79D"/>
	</linearGradient>
	<polyline class="st0" points="-0.31,-0.04 483.49,-0.04 483.49,701.29 -0.31,701.29 	"/>
	<rect x="28.05" y="139.01" class="st1" width="414.27" height="24.47"/>
	<rect x="229.82" y="154.97" class="st1" width="128.97" height="0"/>
	<path class="st2" d="M-21.47,652.08c-0.04-0.04-0.1-0.04-0.14-0.03h-0.2c-0.04,0-0.1,0-0.14,0.03l-0.03,0.06
		c0,0.06,0.04,0.09,0.07,0.1c0,0,0.01,0,0.01,0c0.03,0.01,0.04,0.02,0.05,0.03l0,0c0,0,0.01,0.05,0.01,0.05c0,0,0,0.39,0,0.55
		c-0.08-0.11-0.2-0.29-0.2-0.29l-0.04-0.06c-0.1-0.14-0.22-0.32-0.33-0.43c-0.06-0.06-0.08-0.06-0.16-0.06h-0.28
		c-0.05,0-0.15,0-0.15,0.11c0,0.07,0.06,0.09,0.1,0.1c0.06,0.02,0.06,0.05,0.06,0.12l0,0.03v0.89c0,0-0.01,0.05-0.01,0.05
		c-0.01,0.01-0.02,0.02-0.05,0.03l-0.01,0c-0.04,0.02-0.07,0.04-0.07,0.1l0.03,0.06c0.03,0.04,0.1,0.03,0.14,0.03h0.19
		c0.04,0,0.1,0,0.14-0.03l0.03-0.06c0-0.06-0.03-0.09-0.07-0.1c0,0-0.01,0-0.01,0c-0.03-0.01-0.04-0.02-0.05-0.03
		c0,0-0.01-0.06-0.01-0.06s0-0.55,0-0.73c0.11,0.15,0.56,0.77,0.56,0.77l0.02,0.03c0.05,0.08,0.1,0.15,0.13,0.18
		c0.04,0.04,0.08,0.04,0.13,0.04c0.15,0,0.17-0.06,0.17-0.18v-1.09c0,0,0.01-0.06,0.01-0.06c0.01-0.01,0.02-0.02,0.05-0.03l0.01,0
		c0.04-0.02,0.07-0.04,0.07-0.1L-21.47,652.08z"/>
	<path class="st2" d="M-22,657.17c0,0-0.22,0.57-0.85,0.78c-0.11,0.04-0.61,0.22-0.74,0.4c0-0.09,0.28-0.66,0.35-1.33
		c0.05-0.31,0.16-0.58,0.48-0.91c0.27-0.21,0.68-0.42,0.9-0.78c0.05-0.16,0.06-0.71,0.06-0.71h0.14c0,0-0.01,0.64,0.01,0.7
		s0.04,0.24,0.21,0.4c0.06,0.1,0.65,0.78,0.63,1.06c0.02,0.17,0.06,1.25-0.6,2.56c-0.03-0.02-0.11-0.55-0.32-0.98
		c-0.08-0.11-0.24-0.34-0.24-0.65C-21.96,657.4-21.96,657.18-22,657.17z"/>
</g>
<g id="art">
	
		<linearGradient id="SVGID_00000143612861988901983660000001593140660494817409_" gradientUnits="userSpaceOnUse" x1="112.3843" y1="126.9846" x2="112.3843" y2="396.3974">
		<stop  offset="0" style="stop-color:#D4E7E5"/>
		<stop  offset="1" style="stop-color:#00A79D"/>
	</linearGradient>
	<path style="fill:url(#SVGID_00000143612861988901983660000001593140660494817409_);" d="M220.34,126.98 M81.41,177.67l143.15,0
		v83.55l-135.08,0.16v54.81l132.98-0.92l0.47,80.76L0.21,396.4V177.67"/>
	<g>
		
			<linearGradient id="SVGID_00000049215528120630281970000012529543173605137330_" gradientUnits="userSpaceOnUse" x1="242.1095" y1="16.5253" x2="242.1095" y2="682.6846">
			<stop  offset="0" style="stop-color:#FFFFFF"/>
			<stop  offset="1" style="stop-color:#00A79D"/>
		</linearGradient>
		<path style="fill:url(#SVGID_00000049215528120630281970000012529543173605137330_);" d="M465.17,682.68H19.05V16.53h446.12
			V682.68z M459.89,21.81H23.72v655.57h436.18V21.81z"/>
	</g>
	
		<linearGradient id="SVGID_00000007411935227082648450000002047092754926177170_" gradientUnits="userSpaceOnUse" x1="112.6293" y1="40.7007" x2="112.6293" y2="127.62">
		<stop  offset="0" style="stop-color:#FFFFFF"/>
		<stop  offset="0.5145" style="stop-color:#FCFDFD"/>
		<stop  offset="0.6998" style="stop-color:#F3F8F7"/>
		<stop  offset="0.8318" style="stop-color:#E8F1F0"/>
		<stop  offset="0.9379" style="stop-color:#D7E9E7"/>
		<stop  offset="1" style="stop-color:#CAE2E0"/>
	</linearGradient>
	
		<rect x="0.21" y="40.7" style="fill:url(#SVGID_00000007411935227082648450000002047092754926177170_);" width="224.84" height="86.92"/>
	<g>
		<path d="M43.85,112.91c-0.14,0.53-0.47,1.66-0.47,2.19c0,1,0.96,0.81,1.93,0.81l-0.18,0.72c-1.16-0.02-2.34-0.08-3.5-0.08
			s-2.34,0.06-3.5,0.08l0.18-0.72c1.81,0.02,1.95-0.25,2.4-2.02l2.6-10.35h-0.28c-2.36,0-3.46,0.21-4.35,2.78h-0.81l1-3.76
			c2.01,0.02,4.04,0.08,6.06,0.08c1.85,0,3.68-0.06,5.57-0.08c-0.02,0.57-0.08,1.17-0.08,1.74c0,0.74,0.06,1.47,0.08,2.21h-0.81
			c-0.26-2.3-0.92-2.98-3.15-2.98h-0.33L43.85,112.91z"/>
		<path d="M51.71,106.75c0.14-0.53,0.59-2.19,0.59-2.74c0-0.72-1.06-0.72-1.54-0.72l0.16-0.64l4.21-0.28l-1.99,7.84l0.04,0.04
			c0.65-1.4,1.93-2.83,3.56-2.83c1.04,0,1.73,0.74,1.73,1.83c0,0.64-0.2,1.45-0.39,2.06l-0.65,2.15c-0.08,0.3-0.37,1.15-0.37,1.42
			c0,0.26,0.16,0.57,0.41,0.57c0.71,0,1.34-1.4,1.65-1.98l0.39,0.13c-0.55,1.38-1.75,3.25-3.31,3.25c-0.79,0-1.48-0.66-1.48-1.51
			c0-0.66,0.26-1.47,0.45-2.1l0.63-2.13c0.12-0.4,0.37-1.19,0.37-1.62s-0.22-0.7-0.65-0.7c-0.75,0-1.54,1.02-1.91,1.62
			c-0.59,0.98-1.04,2.21-1.38,3.32l-0.87,2.85h-2.15L51.71,106.75z"/>
		<path d="M67.11,114.1c-0.94,1.45-2.24,2.76-3.98,2.76c-1.85,0-2.93-1.21-2.93-3.17c0-3.17,2.24-6.27,5.39-6.27
			c1.06,0,2.48,0.45,2.48,1.79c0,2.4-3.6,3.21-5.37,3.68c-0.06,0.4-0.12,0.81-0.12,1.21c0,0.83,0.43,1.59,1.3,1.59
			c1.14,0,2.05-1.15,2.72-2L67.11,114.1z M66.14,108.94c0-0.49-0.26-0.87-0.75-0.87c-1.46,0-2.22,2.98-2.5,4.15
			C64.25,111.79,66.14,110.62,66.14,108.94z"/>
		<path d="M77.58,114.1c-0.41,1.53-0.98,3.85-1.61,5.25c-0.83,1.87-2.36,2.98-4.37,2.98c-1.22,0-3.23-0.62-3.23-2.23
			c0-0.66,0.53-1.21,1.16-1.21c0.79,0,1.16,0.66,1.28,1.36c0.1,0.62,0.3,1.15,0.98,1.15c1.16,0,1.56-2.02,1.81-2.93l3.25-12.14
			c0.14-0.51,0.49-1.68,0.49-2.19c0-1.02-0.89-0.81-1.73-0.85l0.18-0.72c0.98,0.02,1.93,0.08,2.91,0.08c1.1,0,2.19-0.06,3.29-0.08
			l-0.18,0.72c-1.42,0-1.54,0.77-1.89,2.06L77.58,114.1z"/>
		<path d="M80.83,113.21c0-2.98,2.13-5.78,5.06-5.78c2.07,0,3.37,1.59,3.37,3.68c0,2.87-2.22,5.76-5.06,5.76
			C82.13,116.87,80.83,115.34,80.83,113.21z M83.88,110.85c-0.35,1.06-0.79,2.68-0.79,3.83c0,0.66,0.24,1.47,1.02,1.47
			c1.87,0,2.91-5.14,2.91-6.65c0-0.68-0.3-1.34-1.04-1.34C84.77,108.15,84.2,109.87,83.88,110.85z"/>
		<path d="M98.71,111.45c-0.24,0.85-0.65,2.55-0.65,3.38c0,0.25,0.04,0.66,0.37,0.66c0.57,0,1.16-1.47,1.36-1.87l0.39,0.15
			c-0.49,1.34-1.44,3.1-3.01,3.1c-0.83,0-1.32-0.74-1.32-1.55c0-0.55,0.08-1.08,0.18-1.57l-0.04-0.04
			c-0.63,1.45-1.91,3.17-3.58,3.17c-0.94,0-1.67-0.64-1.67-1.68c0-0.74,0.37-1.83,0.57-2.55l0.63-2.25c0.08-0.3,0.3-0.89,0.3-1.23
			c0-0.23-0.1-0.45-0.35-0.45c-0.61,0-1.22,1.3-1.52,1.76l-0.37-0.19c0.67-1.34,1.59-2.85,3.19-2.85c0.77,0,1.38,0.53,1.38,1.36
			c0,0.7-0.33,1.76-0.55,2.47l-0.49,1.53c-0.14,0.45-0.57,1.68-0.57,2.15c0,0.38,0.24,0.55,0.59,0.55c1.67,0,3.05-4.57,3.48-5.95
			l0.61-1.93h2.2L98.71,111.45z"/>
		<path d="M103.12,116.59h-2.28l0.79-2.66c0.35-1.17,0.87-3.32,0.87-4.53c0-0.23-0.04-0.53-0.31-0.53c-0.57,0-1.14,1.38-1.34,1.85
			l-0.45-0.21c0.57-1.3,1.52-3.08,3.09-3.08c0.83,0,1.24,0.7,1.24,1.49c0,0.62-0.12,1.21-0.18,1.76l0.04,0.04
			c0.57-1.28,1.4-3.29,3.01-3.29c0.81,0,1.44,0.55,1.44,1.42c0,0.77-0.51,1.25-1.22,1.25c-0.87,0-0.83-0.87-1.32-0.87
			c-1.1,0-2.36,4.12-2.66,5.08L103.12,116.59z"/>
		<path d="M110.23,113.21c0.24-0.96,0.83-2.85,0.83-3.81c0-0.23-0.1-0.57-0.39-0.57c-0.55,0-1.14,1.32-1.36,1.79l-0.41-0.17
			c0.55-1.36,1.46-3.02,3.05-3.02c0.89,0,1.3,0.55,1.3,1.47l-0.1,1.21l-0.06,0.4l0.04,0.04c0.67-1.51,1.91-3.12,3.66-3.12
			c1.04,0,1.65,0.6,1.65,1.66c0,0.7-0.28,1.72-0.49,2.4l-0.39,1.23c-0.14,0.45-0.67,1.87-0.67,2.3c0,0.19,0.14,0.47,0.35,0.47
			c0.57,0,1.24-1.38,1.48-1.79l0.41,0.23c-0.59,1.25-1.61,2.93-3.11,2.93c-0.85,0-1.46-0.62-1.46-1.51c0-0.6,0.33-1.76,0.51-2.36
			l0.41-1.28c0.16-0.53,0.67-2,0.67-2.49c0-0.28-0.18-0.53-0.45-0.53c-1.77,0.04-2.87,3.87-3.31,5.19l-0.89,2.7h-2.13L110.23,113.21
			z"/>
		<path d="M127.06,107.45h2.11l-1.52,5.7c-0.1,0.36-0.33,1.23-0.33,1.57c0,0.26,0.1,0.74,0.39,0.74c0.63,0,1.22-1.42,1.5-1.91
			l0.43,0.19c-0.55,1.34-1.63,3.12-3.17,3.12c-0.77,0-1.36-0.64-1.3-1.42l0.06-0.77l-0.04-0.04c-0.61,1.19-1.67,2.23-3.05,2.23
			c-1.71,0-2.52-1.42-2.52-3.08c0-2.74,2.05-6.36,4.98-6.36c0.96,0,1.65,0.49,2.01,1.38L127.06,107.45z M122.06,114.21
			c0,0.62,0.28,1.38,0.98,1.38c1.85,0,3.09-4.25,3.09-5.78c0-0.68-0.37-1.21-1.08-1.21C123.25,108.6,122.06,112.7,122.06,114.21z"/>
		<path d="M133.11,112.87c-0.14,0.51-0.37,1.32-0.37,1.83c0,0.25,0.02,0.77,0.37,0.77c0.59,0,1.24-1.64,1.42-2.17l0.47,0.15
			c-0.49,1.42-1.46,3.42-3.13,3.42c-0.96,0-1.46-0.64-1.46-1.64c0-0.66,0.22-1.53,0.39-2.19l1.83-7.12
			c0.12-0.45,0.39-1.49,0.39-1.91c0-0.72-1.06-0.72-1.54-0.72l0.16-0.64l4.31-0.28L133.11,112.87z"/>
		<path d="M141.05,113.21c0-2.98,2.13-5.78,5.06-5.78c2.07,0,3.37,1.59,3.37,3.68c0,2.87-2.22,5.76-5.06,5.76
			C142.35,116.87,141.05,115.34,141.05,113.21z M144.1,110.85c-0.35,1.06-0.79,2.68-0.79,3.83c0,0.66,0.24,1.47,1.02,1.47
			c1.87,0,2.91-5.14,2.91-6.65c0-0.68-0.3-1.34-1.04-1.34C145,108.15,144.43,109.87,144.1,110.85z"/>
		<path d="M152.17,118.16c-0.47,2.04-1.59,4.17-3.9,4.17c-0.83,0-1.77-0.42-1.77-1.42c0-0.53,0.43-1.02,0.96-1.02
			c0.55,0,0.83,0.45,0.87,0.94c0.02,0.28,0.08,0.66,0.43,0.66c0.53,0,0.63-0.68,0.73-1.06c0.28-1.23,0.59-2.47,0.87-3.7l1.81-8.12
			h-1.71l0.22-0.85h1.69c0.59-2.42,1.77-5.38,4.65-5.38c0.79,0,2.01,0.23,2.01,1.3c0,0.51-0.43,1.02-0.94,1.02
			c-1.16,0-0.89-1.47-1.71-1.47c-0.57,0-0.81,0.68-0.98,1.13c-0.39,1.11-0.59,2.27-0.81,3.4h1.93l-0.2,0.85h-1.93L152.17,118.16z"/>
		<path d="M36.61,161.7c2.77,0,3.01-1.39,3.68-3.8l3.88-14.06c0.28-0.95,0.95-3.13,0.95-4.08c0-1.9-1.74-1.51-3.36-1.58l0.36-1.35
			c1.9,0.04,3.84,0.16,5.74,0.16c4.67,0,9.3-0.12,13.97-0.16l0.44,6.69H60.7c-1.03-4.4-2.97-4.95-7.04-4.95
			c-2.41,0-2.41-0.12-3.09,2.26l-2.02,7.33h1.58c2.29,0,3.96-0.2,5.38-3.8h1.42l-2.61,10.3h-1.42c0.04-2.3,0.75-4.75-3.28-4.75
			h-1.54l-1.7,6.14c-0.16,0.63-0.63,2.18-0.63,2.81c0,2.26,2.26,2.46,4.04,2.46c4.67,0,6.96-1.11,9.1-5.51h1.38l-1.98,7.25
			c-5.42-0.04-10.88-0.16-16.3-0.16c-1.9,0-3.84,0.12-5.74,0.16L36.61,161.7z"/>
		<path d="M75.26,158.25c-1.54,2.81-4.31,5.23-7.64,5.23c-3.8,0-5.9-2.65-5.9-6.26c0-5.66,4.23-11.33,10.17-11.33
			c2.06,0,4.75,1.03,4.75,3.49c0,1.23-0.91,2.38-2.18,2.38c-1.23,0-2.22-0.83-2.22-2.06c0-1.15,0.71-1.39,0.71-1.94
			c0-0.52-0.63-0.67-1.07-0.67c-3.56,0-5.42,8.2-5.42,10.97c0,1.62,0.83,3.25,2.69,3.25c2.29,0,4.04-1.9,5.18-3.72L75.26,158.25z"/>
		<path d="M76.77,156.67c0-5.55,4.15-10.77,9.85-10.77c4.04,0,6.57,2.97,6.57,6.85c0,5.35-4.31,10.73-9.85,10.73
			C79.3,163.48,76.77,160.63,76.77,156.67z M82.7,152.27c-0.67,1.98-1.54,4.99-1.54,7.13c0,1.23,0.48,2.73,1.98,2.73
			c3.64,0,5.66-9.59,5.66-12.4c0-1.27-0.59-2.5-2.02-2.5C84.44,147.24,83.34,150.45,82.7,152.27z"/>
		<path d="M96.67,156.67c0.48-1.78,1.62-5.31,1.62-7.09c0-0.44-0.2-1.07-0.75-1.07c-1.07,0-2.22,2.46-2.65,3.33l-0.79-0.32
			c1.07-2.54,2.85-5.62,5.94-5.62c1.74,0,2.53,1.03,2.53,2.73l-0.2,2.26l-0.12,0.75l0.08,0.08c1.31-2.81,3.72-5.82,7.12-5.82
			c2.02,0,3.21,1.11,3.21,3.09c0,1.31-0.55,3.21-0.95,4.48l-0.75,2.3c-0.28,0.83-1.31,3.49-1.31,4.28c0,0.36,0.28,0.87,0.67,0.87
			c1.11,0,2.41-2.58,2.89-3.33l0.79,0.44c-1.15,2.34-3.13,5.47-6.05,5.47c-1.66,0-2.85-1.15-2.85-2.81c0-1.11,0.63-3.29,0.99-4.4
			l0.79-2.38c0.32-0.99,1.31-3.72,1.31-4.63c0-0.52-0.36-0.99-0.87-0.99c-3.44,0.08-5.58,7.21-6.45,9.67l-1.74,5.03h-4.15
			L96.67,156.67z"/>
		<path d="M114.76,156.67c0-5.55,4.15-10.77,9.85-10.77c4.04,0,6.57,2.97,6.57,6.85c0,5.35-4.31,10.73-9.85,10.73
			C117.29,163.48,114.76,160.63,114.76,156.67z M120.69,152.27c-0.67,1.98-1.54,4.99-1.54,7.13c0,1.23,0.48,2.73,1.98,2.73
			c3.64,0,5.66-9.59,5.66-12.4c0-1.27-0.59-2.5-2.02-2.5C122.43,147.24,121.32,150.45,120.69,152.27z"/>
		<path d="M134.94,158.05c0.59-1.9,1.9-6.73,1.9-8.56c0-0.4-0.2-0.95-0.71-0.95c-0.99,0-2.22,2.61-2.61,3.41l-0.83-0.4
			c1.11-2.38,2.89-5.66,5.9-5.66c1.66,0,2.61,1.19,2.61,2.81c0,0.87-0.12,1.74-0.32,2.5l0.08,0.08c1.23-2.38,3.56-5.39,6.57-5.39
			c1.7,0,2.89,0.99,2.89,2.77c0,0.87-0.2,1.74-0.36,2.54l0.08,0.08c1.35-2.46,3.32-5.39,6.53-5.39c2.02,0,3.2,1.11,3.2,3.09
			c0,1.31-0.55,3.21-0.95,4.48l-0.75,2.3c-0.28,0.83-1.31,3.49-1.31,4.28c0,0.36,0.28,0.87,0.67,0.87c1.11,0,2.41-2.58,2.89-3.33
			l0.79,0.44c-1.15,2.34-3.13,5.47-6.05,5.47c-1.66,0-2.85-1.15-2.85-2.81c0-1.11,0.63-3.29,0.99-4.4l0.79-2.38
			c0.32-0.99,1.31-3.72,1.31-4.63c0-0.52-0.36-0.99-0.87-0.99c-2.73,0-5.66,8.12-6.33,10.22l-1.42,4.48h-4.27l2.81-9.51
			c0.28-0.95,0.99-2.97,0.99-3.92c0-0.59-0.16-1.27-0.83-1.27c-3.01,0-5.34,7.53-6.09,9.78l-1.62,4.91h-4.31L134.94,158.05z"/>
		<path d="M172.8,157.66c-1.23,2.5-3.52,5.82-6.61,5.82c-1.78,0-2.85-1.23-2.85-3.01c0-1.43,0.59-3.13,1.07-4.48l0.87-2.57
			c0.32-0.87,1.23-3.33,1.23-4.16c0-0.55-0.32-0.99-0.87-0.99c-1.15,0-2.69,2.54-3.24,3.49l-0.75-0.44
			c1.39-2.38,3.48-5.43,6.53-5.43c1.62,0,2.89,0.99,2.89,2.73c0,1.31-0.55,2.93-0.99,4.2l-1.58,4.79c-0.2,0.59-0.59,1.62-0.59,2.26
			c0,0.48,0.4,0.99,0.91,0.99c1.38,0,2.57-2.57,3.24-3.56L172.8,157.66z M167.86,138.48c0-1.43,1.15-2.54,2.57-2.54
			c1.38,0,2.49,1.15,2.49,2.54c0,1.35-1.11,2.54-2.49,2.54C169.01,141.02,167.86,139.91,167.86,138.48z"/>
		<path d="M187.64,158.25c-1.54,2.81-4.31,5.23-7.64,5.23c-3.8,0-5.9-2.65-5.9-6.26c0-5.66,4.23-11.33,10.17-11.33
			c2.06,0,4.75,1.03,4.75,3.49c0,1.23-0.91,2.38-2.18,2.38c-1.23,0-2.22-0.83-2.22-2.06c0-1.15,0.71-1.39,0.71-1.94
			c0-0.52-0.63-0.67-1.07-0.67c-3.56,0-5.42,8.2-5.42,10.97c0,1.62,0.83,3.25,2.69,3.25c2.29,0,4.04-1.9,5.18-3.72L187.64,158.25z"
			/>
		<path d="M207.7,156.11c-0.28,0.95-0.95,3.13-0.95,4.08c0,1.82,1.74,1.43,3.36,1.51l-0.36,1.35c-2.14-0.04-4.23-0.16-6.37-0.16
			c-1.9,0-3.8,0.12-5.7,0.16l0.36-1.35c2.77,0,3.01-1.35,3.68-3.76l3.88-14.1c0.28-0.95,0.95-3.13,0.95-4.08
			c0-1.9-1.74-1.51-3.36-1.58l0.36-1.35c1.86,0.04,3.8,0.16,5.7,0.16c1.58,0,3.17-0.16,4.75-0.16c4.15-0.04,10.17,0.99,10.17,6.34
			c0,6.3-6.57,7.84-11.59,7.68l-3.36-0.12L207.7,156.11z M209.64,148.98v0.08c0.67-0.04,1.38,0.04,2.06,0.04
			c4.11,0.04,6.69-2.65,6.69-6.85c0-2.81-1.74-3.68-4.27-3.68c-1.9,0-1.82,1.03-2.25,2.61L209.64,148.98z"/>
		<path d="M235.84,158.33c-1.82,2.69-4.35,5.15-7.75,5.15c-3.6,0-5.7-2.26-5.7-5.9c0-5.9,4.35-11.69,10.48-11.69
			c2.06,0,4.83,0.83,4.83,3.33c0,4.48-7,5.98-10.45,6.85c-0.12,0.75-0.24,1.51-0.24,2.26c0,1.54,0.83,2.97,2.53,2.97
			c2.22,0,4-2.14,5.3-3.72L235.84,158.33z M233.94,148.7c0-0.91-0.51-1.62-1.46-1.62c-2.85,0-4.31,5.55-4.87,7.72
			C230.26,154.01,233.94,151.83,233.94,148.7z"/>
		<path d="M242.45,162.96h-4.43l1.54-4.95c0.67-2.18,1.7-6.18,1.7-8.44c0-0.44-0.08-0.99-0.59-0.99c-1.11,0-2.22,2.57-2.61,3.45
			l-0.87-0.4c1.11-2.42,2.97-5.74,6.01-5.74c1.62,0,2.41,1.31,2.41,2.77c0,1.15-0.24,2.26-0.36,3.29l0.08,0.08
			c1.11-2.38,2.73-6.14,5.86-6.14c1.58,0,2.81,1.03,2.81,2.65c0,1.43-0.99,2.34-2.37,2.34c-1.7,0-1.62-1.62-2.57-1.62
			c-2.14,0-4.59,7.68-5.18,9.47L242.45,162.96z"/>
		<path d="M255.07,151c0-3.45,3.28-5.11,6.33-5.11c1.94,0,4.75,0.67,4.75,3.13c0,0.95-0.71,1.66-1.66,1.66
			c-1.19,0-1.66-1.07-1.7-2.06c-0.04-0.95-0.32-1.39-1.38-1.39c-1.27,0-2.14,0.63-2.14,1.86c0,1.47,1.23,2.54,2.14,3.45
			c1.54,1.58,2.85,3.17,2.85,5.51c0,3.41-3.48,5.43-6.53,5.43c-2.22,0-5.34-1.07-5.34-3.8c0-1.07,0.63-1.86,1.74-1.86
			c0.99,0,1.9,0.67,1.82,1.74l-0.04,0.67l-0.04,0.63c-0.04,0.87,0.91,1.27,1.62,1.27c1.35,0,2.37-1.15,2.37-2.46
			c0-1.35-0.75-2.1-1.58-3.05C256.93,155.04,255.07,153.18,255.07,151z"/>
		<path d="M275.53,148.43l0.08,0.08c1.19-1.58,2.93-2.61,4.99-2.61c3.4,0,4.91,2.54,4.91,5.7c0,5.03-3.32,11.88-9.06,11.88
			c-1.82,0-3.17-0.95-3.88-2.57h-0.08l-2.1,7.96c-0.16,0.59-0.44,1.39-0.44,2.02c0,1.47,1.54,1.47,2.65,1.58l-0.32,1.19
			c-1.62-0.04-3.21-0.16-4.83-0.16s-3.21,0.12-4.83,0.16l0.28-1.19c0.75-0.12,1.7-0.04,2.14-0.71c0.59-0.79,1.03-2.69,1.31-3.68
			l5.06-18.82c-2.33,1.07-3.68,2.18-4.47,4.67l-1.03-0.4c0.51-2.3,1.82-3.6,3.72-4.91c2.45-1.78,2.57-2.34,3.32-5.19l0.99-3.68
			l3.76,0.67L275.53,148.43z M280.95,150.53c0-1.31-0.71-2.46-2.18-2.46c-3.52,0-5.38,8.24-5.38,10.66c0,1.23,0.55,2.57,1.98,2.57
			C278.93,161.3,280.95,153.38,280.95,150.53z"/>
		<path d="M300.73,158.33c-1.82,2.69-4.35,5.15-7.75,5.15c-3.6,0-5.7-2.26-5.7-5.9c0-5.9,4.35-11.69,10.49-11.69
			c2.06,0,4.83,0.83,4.83,3.33c0,4.48-7,5.98-10.45,6.85c-0.12,0.75-0.24,1.51-0.24,2.26c0,1.54,0.83,2.97,2.53,2.97
			c2.22,0,4-2.14,5.3-3.72L300.73,158.33z M298.83,148.7c0-0.91-0.51-1.62-1.46-1.62c-2.85,0-4.31,5.55-4.87,7.72
			C295.15,154.01,298.83,151.83,298.83,148.7z"/>
		<path d="M316.64,158.25c-1.54,2.81-4.31,5.23-7.64,5.23c-3.8,0-5.9-2.65-5.9-6.26c0-5.66,4.23-11.33,10.17-11.33
			c2.06,0,4.75,1.03,4.75,3.49c0,1.23-0.91,2.38-2.18,2.38c-1.23,0-2.22-0.83-2.22-2.06c0-1.15,0.71-1.39,0.71-1.94
			c0-0.52-0.63-0.67-1.07-0.67c-3.56,0-5.42,8.2-5.42,10.97c0,1.62,0.83,3.25,2.69,3.25c2.29,0,4.04-1.9,5.18-3.72L316.64,158.25z"
			/>
		<path d="M326.29,146.68h3.76l-0.44,1.58h-3.76l-1.82,6.85c-0.28,1.11-0.99,3.49-0.99,4.6c0,0.59,0.16,1.39,0.91,1.39
			c1.34,0,2.69-2.42,3.24-3.37l0.32-0.55l0.75,0.4c-1.23,2.46-3.36,5.9-6.41,5.9c-1.78,0-3.2-1.31-3.2-3.09
			c0-1.7,0.75-4.28,1.19-5.94l1.66-6.18h-3.13l0.36-1.58h3.17l2.02-6.22h4.04L326.29,146.68z"/>
		<path d="M339.79,157.66c-1.23,2.5-3.52,5.82-6.61,5.82c-1.78,0-2.85-1.23-2.85-3.01c0-1.43,0.59-3.13,1.07-4.48l0.87-2.57
			c0.32-0.87,1.23-3.33,1.23-4.16c0-0.55-0.32-0.99-0.87-0.99c-1.15,0-2.69,2.54-3.24,3.49l-0.75-0.44
			c1.38-2.38,3.48-5.43,6.53-5.43c1.62,0,2.89,0.99,2.89,2.73c0,1.31-0.55,2.93-0.99,4.2l-1.58,4.79c-0.2,0.59-0.59,1.62-0.59,2.26
			c0,0.48,0.4,0.99,0.91,0.99c1.38,0,2.57-2.57,3.24-3.56L339.79,157.66z M334.84,138.48c0-1.43,1.15-2.54,2.57-2.54
			c1.38,0,2.49,1.15,2.49,2.54c0,1.35-1.11,2.54-2.49,2.54C335.99,141.02,334.84,139.91,334.84,138.48z"/>
		<path d="M346.44,163.48c-2.37,0-4.79-1.27-4.79-3.96c0-3.64,3.76-7.17,6.13-9.59l-0.08-0.08c-0.51,0.16-1.23,0.4-1.78,0.4
			c-1.15,0-2.06-0.48-2.73-0.48c-1.23,0-1.03,1.23-1.5,1.23c-0.48,0-0.63-1.03-0.63-1.39c0-1.66,1.03-3.41,2.85-3.41
			c1.98,0,2.53,1.82,3.96,1.82c0.83,0,1.07-0.55,1.27-1.07c0.24-0.55,0.43-1.07,1.15-1.07c0.51,0,0.79,0.4,0.79,0.87
			c0,1.11-4.27,6.62-4.27,11.13c0,1.47,0.91,2.97,2.49,2.97c3.09,0,5.42-4.79,5.3-8.95c-0.04-1.54-0.36-3.09-0.36-4
			c0-0.91,0.51-2.02,1.74-2.02c1.66,0,2.22,1.51,2.22,2.93C358.19,154.61,352.96,163.48,346.44,163.48z"/>
		<path d="M372.75,158.33c-1.82,2.69-4.35,5.15-7.75,5.15c-3.6,0-5.7-2.26-5.7-5.9c0-5.9,4.35-11.69,10.49-11.69
			c2.06,0,4.83,0.83,4.83,3.33c0,4.48-7,5.98-10.45,6.85c-0.12,0.75-0.24,1.51-0.24,2.26c0,1.54,0.83,2.97,2.53,2.97
			c2.22,0,4-2.14,5.3-3.72L372.75,158.33z M370.85,148.7c0-0.91-0.51-1.62-1.46-1.62c-2.85,0-4.31,5.55-4.87,7.72
			C367.17,154.01,370.85,151.83,370.85,148.7z"/>
		<path d="M376.95,151c0-3.45,3.28-5.11,6.33-5.11c1.94,0,4.75,0.67,4.75,3.13c0,0.95-0.71,1.66-1.66,1.66
			c-1.19,0-1.66-1.07-1.7-2.06c-0.04-0.95-0.32-1.39-1.38-1.39c-1.27,0-2.14,0.63-2.14,1.86c0,1.47,1.23,2.54,2.14,3.45
			c1.54,1.58,2.85,3.17,2.85,5.51c0,3.41-3.48,5.43-6.53,5.43c-2.22,0-5.34-1.07-5.34-3.8c0-1.07,0.63-1.86,1.74-1.86
			c0.99,0,1.9,0.67,1.82,1.74l-0.04,0.67l-0.04,0.63c-0.04,0.87,0.91,1.27,1.62,1.27c1.35,0,2.37-1.15,2.37-2.46
			c0-1.35-0.75-2.1-1.58-3.05C378.8,155.04,376.95,153.18,376.95,151z"/>
		<path d="M99.57,284.09c0.04,0.26,0.18,1.04,0.31,1.25c0.1,0.16,0.38,0.16,0.56,0.19l-0.09,0.35c-0.5-0.01-0.98-0.04-1.48-0.04
			c-0.47,0-0.93,0.03-1.4,0.04l0.09-0.35c0.32-0.02,0.81,0.01,0.81-0.45c0-0.2-0.04-0.45-0.07-0.65l-0.11-0.69H96
			c-0.17,0.3-0.61,1.04-0.61,1.34c0,0.41,0.48,0.41,0.77,0.45l-0.09,0.35c-0.38-0.01-0.77-0.04-1.16-0.04
			c-0.41,0-0.82,0.03-1.23,0.04l0.09-0.35c0.68-0.06,0.94-0.57,1.26-1.11l1.79-3.09c0.45-0.77,0.97-1.49,1.46-2.26h0.47
			L99.57,284.09z M97.77,280.76h-0.02l-1.48,2.54h1.86L97.77,280.76z"/>
		<path d="M103.22,282.91c0.3-0.62,0.81-1.43,1.58-1.43c0.41,0,0.71,0.25,0.71,0.67c0,0.48-0.24,1.31-0.37,1.79l-0.32,1.22
			c-0.34,1.29-0.87,3.44-2.58,3.44c-0.42,0-1.12-0.23-1.12-0.76c0-0.28,0.23-0.5,0.52-0.5c0.61,0,0.4,0.91,0.78,0.91
			c0.35,0,0.56-0.73,0.64-0.98l0.54-1.8c0.35-1.2,0.77-2.72,0.77-3.12c0-0.11-0.03-0.26-0.17-0.26c-0.24,0-0.61,0.74-0.74,0.94
			L103.22,282.91z M104.83,279.58c0-0.37,0.28-0.65,0.65-0.65c0.35,0,0.65,0.29,0.65,0.65c0,0.35-0.29,0.65-0.65,0.65
			S104.83,279.95,104.83,279.58z"/>
		<path d="M105.96,284.24c0-1.42,1.06-2.76,2.52-2.76c1.03,0,1.68,0.76,1.68,1.76c0,1.37-1.1,2.75-2.52,2.75
			C106.61,285.98,105.96,285.25,105.96,284.24z M107.48,283.11c-0.17,0.51-0.4,1.28-0.4,1.83c0,0.31,0.12,0.7,0.51,0.7
			c0.93,0,1.45-2.46,1.45-3.18c0-0.32-0.15-0.64-0.52-0.64C107.93,281.82,107.65,282.64,107.48,283.11z"/>
		<path d="M114.83,283.4c-0.12,0.41-0.32,1.22-0.32,1.61c0,0.12,0.02,0.31,0.18,0.31c0.28,0,0.58-0.7,0.68-0.89l0.19,0.07
			c-0.24,0.64-0.72,1.48-1.5,1.48c-0.42,0-0.66-0.35-0.66-0.74c0-0.26,0.04-0.52,0.09-0.75l-0.02-0.02
			c-0.31,0.69-0.95,1.51-1.78,1.51c-0.47,0-0.83-0.3-0.83-0.8c0-0.35,0.18-0.87,0.28-1.22l0.31-1.08c0.04-0.14,0.15-0.43,0.15-0.59
			c0-0.11-0.05-0.21-0.17-0.21c-0.3,0-0.61,0.62-0.76,0.84l-0.18-0.09c0.33-0.64,0.79-1.36,1.59-1.36c0.39,0,0.69,0.25,0.69,0.65
			c0,0.33-0.16,0.84-0.27,1.18l-0.24,0.73c-0.07,0.21-0.28,0.8-0.28,1.02c0,0.18,0.12,0.26,0.29,0.26c0.83,0,1.52-2.18,1.73-2.84
			l0.3-0.92h1.09L114.83,283.4z"/>
		<path d="M116.98,285.85h-1.13l0.4-1.27c0.17-0.56,0.44-1.58,0.44-2.16c0-0.11-0.02-0.25-0.15-0.25c-0.28,0-0.57,0.66-0.67,0.88
			l-0.22-0.1c0.28-0.62,0.76-1.47,1.54-1.47c0.42,0,0.62,0.33,0.62,0.71c0,0.29-0.06,0.58-0.09,0.84l0.02,0.02
			c0.28-0.61,0.7-1.57,1.5-1.57c0.41,0,0.72,0.26,0.72,0.68c0,0.37-0.25,0.6-0.61,0.6c-0.44,0-0.42-0.42-0.66-0.42
			c-0.55,0-1.17,1.97-1.33,2.42L116.98,285.85z"/>
		<path d="M120.48,284.24c0.12-0.46,0.42-1.36,0.42-1.82c0-0.11-0.05-0.27-0.19-0.27c-0.27,0-0.57,0.63-0.68,0.85l-0.2-0.08
			c0.27-0.65,0.73-1.44,1.52-1.44c0.45,0,0.65,0.26,0.65,0.7l-0.05,0.58l-0.03,0.19l0.02,0.02c0.33-0.72,0.95-1.49,1.82-1.49
			c0.52,0,0.82,0.28,0.82,0.79c0,0.33-0.14,0.82-0.24,1.15l-0.19,0.59c-0.07,0.21-0.33,0.89-0.33,1.1c0,0.09,0.07,0.22,0.17,0.22
			c0.28,0,0.62-0.66,0.74-0.85l0.2,0.11c-0.29,0.6-0.8,1.4-1.55,1.4c-0.43,0-0.73-0.29-0.73-0.72c0-0.28,0.16-0.84,0.25-1.13
			l0.2-0.61c0.08-0.25,0.33-0.95,0.33-1.19c0-0.13-0.09-0.25-0.22-0.25c-0.88,0.02-1.43,1.85-1.65,2.48l-0.45,1.29h-1.06
			L120.48,284.24z"/>
		<path d="M128.82,281.49h1.05l-0.76,2.72c-0.05,0.17-0.16,0.59-0.16,0.75c0,0.12,0.05,0.36,0.19,0.36c0.31,0,0.61-0.68,0.75-0.91
			l0.21,0.09c-0.27,0.64-0.81,1.49-1.58,1.49c-0.39,0-0.68-0.3-0.65-0.68l0.03-0.37l-0.02-0.02c-0.3,0.57-0.83,1.07-1.52,1.07
			c-0.85,0-1.26-0.68-1.26-1.47c0-1.31,1.02-3.03,2.48-3.03c0.48,0,0.82,0.23,1,0.66L128.82,281.49z M126.32,284.71
			c0,0.29,0.14,0.66,0.49,0.66c0.92,0,1.54-2.03,1.54-2.76c0-0.32-0.18-0.58-0.54-0.58C126.92,282.04,126.32,283.99,126.32,284.71z"
			/>
		<path d="M131.79,284.08c-0.07,0.24-0.18,0.63-0.18,0.87c0,0.12,0.01,0.37,0.18,0.37c0.29,0,0.62-0.78,0.71-1.04l0.23,0.07
			c-0.24,0.68-0.73,1.63-1.56,1.63c-0.48,0-0.73-0.3-0.73-0.78c0-0.31,0.11-0.73,0.19-1.04l0.91-3.4c0.06-0.21,0.19-0.71,0.19-0.91
			c0-0.34-0.53-0.34-0.77-0.34l0.08-0.3l2.15-0.13L131.79,284.08z"/>
		<path d="M135.65,284.24c0-1.42,1.06-2.76,2.52-2.76c1.03,0,1.68,0.76,1.68,1.76c0,1.37-1.1,2.75-2.52,2.75
			C136.29,285.98,135.65,285.25,135.65,284.24z M137.17,283.11c-0.17,0.51-0.4,1.28-0.4,1.83c0,0.31,0.12,0.7,0.51,0.7
			c0.93,0,1.45-2.46,1.45-3.18c0-0.32-0.15-0.64-0.52-0.64C137.61,281.82,137.33,282.64,137.17,283.11z"/>
		<path d="M141.14,286.6c-0.23,0.97-0.79,1.99-1.95,1.99c-0.42,0-0.88-0.2-0.88-0.68c0-0.25,0.21-0.49,0.48-0.49
			c0.27,0,0.42,0.21,0.44,0.45c0.01,0.13,0.04,0.31,0.21,0.31c0.26,0,0.31-0.32,0.37-0.51c0.14-0.59,0.29-1.18,0.44-1.77l0.9-3.88
			h-0.85l0.11-0.41h0.84c0.29-1.16,0.88-2.57,2.32-2.57c0.4,0,1,0.11,1,0.62c0,0.24-0.21,0.49-0.47,0.49c-0.58,0-0.45-0.7-0.85-0.7
			c-0.28,0-0.41,0.32-0.49,0.54c-0.19,0.53-0.29,1.09-0.41,1.62h0.96l-0.1,0.41h-0.96L141.14,286.6z"/>
		<path d="M147.66,281.68h0.96l-0.11,0.41h-0.96l-0.47,1.76c-0.07,0.28-0.25,0.89-0.25,1.18c0,0.15,0.04,0.35,0.23,0.35
			c0.34,0,0.69-0.62,0.83-0.86l0.08-0.14l0.19,0.1c-0.31,0.63-0.86,1.51-1.64,1.51c-0.46,0-0.82-0.33-0.82-0.79
			c0-0.44,0.19-1.1,0.3-1.52l0.43-1.58h-0.8l0.09-0.41h0.81l0.52-1.59h1.03L147.66,281.68z"/>
		<path d="M149.5,281.15c0.07-0.25,0.29-1.04,0.29-1.31c0-0.34-0.53-0.34-0.77-0.34l0.08-0.3l2.1-0.13l-0.99,3.74l0.02,0.02
			c0.32-0.67,0.96-1.35,1.77-1.35c0.52,0,0.86,0.36,0.86,0.87c0,0.3-0.1,0.69-0.19,0.98l-0.32,1.02c-0.04,0.14-0.18,0.55-0.18,0.68
			c0,0.12,0.08,0.27,0.2,0.27c0.35,0,0.67-0.67,0.82-0.94l0.19,0.06c-0.27,0.66-0.87,1.55-1.65,1.55c-0.4,0-0.74-0.31-0.74-0.72
			c0-0.31,0.13-0.7,0.22-1l0.31-1.01c0.06-0.19,0.18-0.57,0.18-0.77c0-0.2-0.11-0.33-0.32-0.33c-0.38,0-0.77,0.49-0.95,0.77
			c-0.29,0.47-0.52,1.06-0.69,1.58l-0.44,1.36h-1.07L149.5,281.15z"/>
		<path d="M157.13,284.66c-0.47,0.69-1.11,1.32-1.99,1.32c-0.92,0-1.46-0.58-1.46-1.51c0-1.51,1.11-2.99,2.69-2.99
			c0.53,0,1.24,0.21,1.24,0.85c0,1.15-1.79,1.53-2.67,1.76c-0.03,0.19-0.06,0.39-0.06,0.58c0,0.4,0.21,0.76,0.65,0.76
			c0.57,0,1.02-0.55,1.36-0.95L157.13,284.66z M156.64,282.2c0-0.23-0.13-0.42-0.38-0.42c-0.73,0-1.1,1.42-1.25,1.98
			C155.7,283.56,156.64,283,156.64,282.2z"/>
		<path d="M99.57,295.68c0.04,0.26,0.18,1.04,0.31,1.25c0.1,0.16,0.38,0.16,0.56,0.19l-0.09,0.35c-0.5-0.01-0.98-0.04-1.48-0.04
			c-0.47,0-0.93,0.03-1.4,0.04l0.09-0.35c0.32-0.02,0.81,0.01,0.81-0.45c0-0.2-0.04-0.45-0.07-0.65l-0.11-0.69H96
			c-0.17,0.3-0.61,1.03-0.61,1.34c0,0.41,0.48,0.41,0.77,0.45l-0.09,0.35c-0.38-0.01-0.77-0.04-1.16-0.04
			c-0.41,0-0.82,0.03-1.23,0.04l0.09-0.35c0.68-0.06,0.94-0.57,1.26-1.11l1.79-3.09c0.45-0.77,0.97-1.49,1.46-2.26h0.47
			L99.57,295.68z M97.77,292.35h-0.02l-1.48,2.54h1.86L97.77,292.35z"/>
		<path d="M101.2,296.19c0.15-0.49,0.49-1.73,0.49-2.19c0-0.1-0.05-0.24-0.18-0.24c-0.25,0-0.57,0.67-0.67,0.87l-0.21-0.1
			c0.28-0.61,0.74-1.45,1.51-1.45c0.43,0,0.67,0.3,0.67,0.72c0,0.22-0.03,0.45-0.08,0.64l0.02,0.02c0.31-0.61,0.91-1.38,1.68-1.38
			c0.44,0,0.74,0.25,0.74,0.71c0,0.22-0.05,0.45-0.09,0.65l0.02,0.02c0.34-0.63,0.85-1.38,1.67-1.38c0.52,0,0.82,0.28,0.82,0.79
			c0,0.33-0.14,0.82-0.24,1.15l-0.19,0.59c-0.07,0.21-0.33,0.89-0.33,1.1c0,0.09,0.07,0.22,0.17,0.22c0.28,0,0.62-0.66,0.74-0.85
			l0.2,0.11c-0.29,0.6-0.8,1.4-1.55,1.4c-0.43,0-0.73-0.29-0.73-0.72c0-0.28,0.16-0.84,0.25-1.13l0.2-0.61
			c0.08-0.25,0.33-0.95,0.33-1.19c0-0.13-0.09-0.25-0.22-0.25c-0.7,0-1.45,2.08-1.62,2.62l-0.36,1.15h-1.09l0.72-2.44
			c0.07-0.24,0.25-0.76,0.25-1c0-0.15-0.04-0.32-0.21-0.32c-0.77,0-1.37,1.93-1.56,2.51l-0.42,1.26h-1.1L101.2,296.19z"/>
		<path d="M111.64,296.26c-0.47,0.69-1.11,1.32-1.99,1.32c-0.92,0-1.46-0.58-1.46-1.51c0-1.51,1.11-2.99,2.69-2.99
			c0.53,0,1.24,0.21,1.24,0.85c0,1.15-1.79,1.53-2.67,1.76c-0.03,0.19-0.06,0.39-0.06,0.58c0,0.4,0.21,0.76,0.65,0.76
			c0.57,0,1.02-0.55,1.36-0.95L111.64,296.26z M111.15,293.79c0-0.23-0.13-0.42-0.38-0.42c-0.73,0-1.1,1.42-1.25,1.98
			C110.21,295.15,111.15,294.59,111.15,293.79z"/>
		<path d="M113.33,297.44h-1.13l0.4-1.27c0.17-0.56,0.44-1.58,0.44-2.16c0-0.11-0.02-0.25-0.15-0.25c-0.28,0-0.57,0.66-0.67,0.88
			l-0.22-0.1c0.28-0.62,0.76-1.47,1.54-1.47c0.42,0,0.62,0.33,0.62,0.71c0,0.29-0.06,0.58-0.09,0.84l0.02,0.02
			c0.28-0.61,0.7-1.57,1.5-1.57c0.41,0,0.72,0.26,0.72,0.68c0,0.37-0.25,0.6-0.61,0.6c-0.44,0-0.42-0.42-0.66-0.42
			c-0.55,0-1.18,1.97-1.33,2.42L113.33,297.44z"/>
		<path d="M118.8,296.08c-0.31,0.64-0.9,1.49-1.69,1.49c-0.46,0-0.73-0.31-0.73-0.77c0-0.37,0.15-0.8,0.27-1.15l0.22-0.66
			c0.08-0.22,0.31-0.85,0.31-1.07c0-0.14-0.08-0.25-0.22-0.25c-0.29,0-0.69,0.65-0.83,0.89l-0.19-0.11
			c0.35-0.61,0.89-1.39,1.67-1.39c0.42,0,0.74,0.25,0.74,0.7c0,0.33-0.14,0.75-0.25,1.08l-0.41,1.23c-0.05,0.15-0.15,0.42-0.15,0.58
			c0,0.12,0.1,0.25,0.23,0.25c0.35,0,0.66-0.66,0.83-0.91L118.8,296.08z M117.54,291.17c0-0.37,0.29-0.65,0.66-0.65
			c0.35,0,0.64,0.29,0.64,0.65c0,0.35-0.28,0.65-0.64,0.65C117.83,291.82,117.54,291.54,117.54,291.17z"/>
		<path d="M122.6,296.24c-0.4,0.72-1.1,1.34-1.96,1.34c-0.97,0-1.51-0.68-1.51-1.6c0-1.45,1.08-2.9,2.6-2.9
			c0.53,0,1.22,0.26,1.22,0.89c0,0.31-0.23,0.61-0.56,0.61c-0.31,0-0.57-0.21-0.57-0.53c0-0.29,0.18-0.35,0.18-0.5
			c0-0.13-0.16-0.17-0.27-0.17c-0.91,0-1.39,2.1-1.39,2.81c0,0.42,0.21,0.83,0.69,0.83c0.59,0,1.03-0.49,1.33-0.95L122.6,296.24z"/>
		<path d="M126.7,293.08h1.05l-0.76,2.72c-0.05,0.17-0.16,0.59-0.16,0.75c0,0.12,0.05,0.36,0.19,0.36c0.31,0,0.61-0.68,0.75-0.91
			l0.21,0.09c-0.27,0.64-0.81,1.49-1.58,1.49c-0.39,0-0.68-0.3-0.65-0.68l0.03-0.37l-0.02-0.02c-0.3,0.57-0.83,1.07-1.52,1.07
			c-0.85,0-1.26-0.68-1.26-1.47c0-1.31,1.02-3.03,2.48-3.03c0.48,0,0.82,0.23,1,0.66L126.7,293.08z M124.2,296.31
			c0,0.29,0.14,0.66,0.49,0.66c0.92,0,1.54-2.03,1.54-2.76c0-0.32-0.18-0.58-0.54-0.58C124.8,293.63,124.2,295.59,124.2,296.31z"/>
		<path d="M128.69,295.83c0.12-0.46,0.42-1.36,0.42-1.82c0-0.11-0.05-0.27-0.19-0.27c-0.27,0-0.57,0.63-0.68,0.85l-0.2-0.08
			c0.27-0.65,0.73-1.44,1.52-1.44c0.45,0,0.65,0.26,0.65,0.7l-0.05,0.58l-0.03,0.19l0.02,0.02c0.33-0.72,0.95-1.49,1.82-1.49
			c0.52,0,0.82,0.28,0.82,0.79c0,0.33-0.14,0.82-0.24,1.15l-0.19,0.59c-0.07,0.21-0.33,0.89-0.33,1.1c0,0.09,0.07,0.22,0.17,0.22
			c0.28,0,0.62-0.66,0.74-0.85l0.2,0.11c-0.29,0.6-0.8,1.4-1.55,1.4c-0.43,0-0.73-0.29-0.73-0.72c0-0.28,0.16-0.84,0.25-1.13
			l0.2-0.61c0.08-0.25,0.33-0.95,0.33-1.19c0-0.13-0.09-0.25-0.22-0.25c-0.88,0.02-1.43,1.85-1.65,2.48l-0.45,1.29h-1.06
			L128.69,295.83z"/>
		<path d="M135.61,297.12c0.71,0,0.77-0.35,0.94-0.97l0.99-3.6c0.07-0.24,0.24-0.8,0.24-1.05c0-0.49-0.45-0.39-0.86-0.41l0.09-0.35
			c0.49,0.01,0.98,0.04,1.47,0.04c1.2,0,2.38-0.03,3.58-0.04l0.11,1.71h-0.4c-0.26-1.13-0.76-1.27-1.8-1.27
			c-0.62,0-0.62-0.03-0.79,0.58l-0.52,1.88h0.41c0.59,0,1.01-0.05,1.38-0.97h0.36l-0.67,2.64h-0.36c0.01-0.59,0.19-1.22-0.84-1.22
			h-0.4l-0.44,1.57c-0.04,0.16-0.16,0.56-0.16,0.72c0,0.58,0.58,0.63,1.03,0.63c1.2,0,1.78-0.28,2.33-1.41h0.35l-0.51,1.86
			c-1.39-0.01-2.79-0.04-4.17-0.04c-0.49,0-0.98,0.03-1.47,0.04L135.61,297.12z"/>
		<path d="M145.51,296.24c-0.4,0.72-1.1,1.34-1.96,1.34c-0.97,0-1.51-0.68-1.51-1.6c0-1.45,1.08-2.9,2.6-2.9
			c0.53,0,1.22,0.26,1.22,0.89c0,0.31-0.23,0.61-0.56,0.61c-0.31,0-0.57-0.21-0.57-0.53c0-0.29,0.18-0.35,0.18-0.5
			c0-0.13-0.16-0.17-0.27-0.17c-0.91,0-1.39,2.1-1.39,2.81c0,0.42,0.21,0.83,0.69,0.83c0.59,0,1.03-0.49,1.33-0.95L145.51,296.24z"
			/>
		<path d="M145.89,295.83c0-1.42,1.06-2.76,2.52-2.76c1.03,0,1.68,0.76,1.68,1.76c0,1.37-1.1,2.75-2.52,2.75
			C146.54,297.58,145.89,296.85,145.89,295.83z M147.41,294.7c-0.17,0.51-0.4,1.28-0.4,1.83c0,0.31,0.12,0.7,0.51,0.7
			c0.93,0,1.45-2.46,1.45-3.18c0-0.32-0.15-0.64-0.52-0.64C147.86,293.42,147.57,294.24,147.41,294.7z"/>
		<path d="M150.99,295.83c0.12-0.46,0.42-1.36,0.42-1.82c0-0.11-0.05-0.27-0.19-0.27c-0.27,0-0.57,0.63-0.68,0.85l-0.2-0.08
			c0.27-0.65,0.73-1.44,1.52-1.44c0.45,0,0.65,0.26,0.65,0.7l-0.05,0.58l-0.03,0.19l0.02,0.02c0.33-0.72,0.95-1.49,1.82-1.49
			c0.52,0,0.82,0.28,0.82,0.79c0,0.33-0.14,0.82-0.24,1.15l-0.19,0.59c-0.07,0.21-0.33,0.89-0.33,1.1c0,0.09,0.07,0.22,0.17,0.22
			c0.28,0,0.62-0.66,0.74-0.85l0.2,0.11c-0.29,0.6-0.8,1.4-1.55,1.4c-0.43,0-0.73-0.29-0.73-0.72c0-0.28,0.16-0.84,0.25-1.13
			l0.2-0.61c0.08-0.25,0.33-0.95,0.33-1.19c0-0.13-0.09-0.25-0.22-0.25c-0.88,0.02-1.43,1.85-1.65,2.48l-0.45,1.29h-1.06
			L150.99,295.83z"/>
		<path d="M155.62,295.83c0-1.42,1.06-2.76,2.52-2.76c1.03,0,1.68,0.76,1.68,1.76c0,1.37-1.1,2.75-2.52,2.75
			C156.27,297.58,155.62,296.85,155.62,295.83z M157.14,294.7c-0.17,0.51-0.4,1.28-0.4,1.83c0,0.31,0.12,0.7,0.51,0.7
			c0.93,0,1.45-2.46,1.45-3.18c0-0.32-0.15-0.64-0.52-0.64C157.58,293.42,157.3,294.24,157.14,294.7z"/>
		<path d="M160.79,296.19c0.15-0.49,0.49-1.73,0.49-2.19c0-0.1-0.05-0.24-0.18-0.24c-0.25,0-0.57,0.67-0.67,0.87l-0.21-0.1
			c0.28-0.61,0.74-1.45,1.51-1.45c0.43,0,0.67,0.3,0.67,0.72c0,0.22-0.03,0.45-0.08,0.64l0.02,0.02c0.31-0.61,0.91-1.38,1.68-1.38
			c0.44,0,0.74,0.25,0.74,0.71c0,0.22-0.05,0.45-0.09,0.65l0.02,0.02c0.34-0.63,0.85-1.38,1.67-1.38c0.52,0,0.82,0.28,0.82,0.79
			c0,0.33-0.14,0.82-0.24,1.15l-0.19,0.59c-0.07,0.21-0.33,0.89-0.33,1.1c0,0.09,0.07,0.22,0.17,0.22c0.28,0,0.62-0.66,0.74-0.85
			l0.2,0.11c-0.29,0.6-0.8,1.4-1.55,1.4c-0.43,0-0.73-0.29-0.73-0.72c0-0.28,0.16-0.84,0.25-1.13l0.2-0.61
			c0.08-0.25,0.33-0.95,0.33-1.19c0-0.13-0.09-0.25-0.22-0.25c-0.7,0-1.45,2.08-1.62,2.62l-0.36,1.15h-1.09l0.72-2.44
			c0.07-0.24,0.25-0.76,0.25-1c0-0.15-0.04-0.32-0.21-0.32c-0.77,0-1.37,1.93-1.56,2.51l-0.42,1.26h-1.1L160.79,296.19z"/>
		<path d="M170.49,296.08c-0.31,0.64-0.9,1.49-1.69,1.49c-0.46,0-0.73-0.31-0.73-0.77c0-0.37,0.15-0.8,0.27-1.15l0.22-0.66
			c0.08-0.22,0.31-0.85,0.31-1.07c0-0.14-0.08-0.25-0.22-0.25c-0.29,0-0.69,0.65-0.83,0.89l-0.19-0.11
			c0.35-0.61,0.89-1.39,1.67-1.39c0.42,0,0.74,0.25,0.74,0.7c0,0.33-0.14,0.75-0.25,1.08l-0.41,1.23c-0.05,0.15-0.15,0.42-0.15,0.58
			c0,0.12,0.1,0.25,0.23,0.25c0.35,0,0.66-0.66,0.83-0.91L170.49,296.08z M169.22,291.17c0-0.37,0.29-0.65,0.66-0.65
			c0.35,0,0.64,0.29,0.64,0.65c0,0.35-0.28,0.65-0.64,0.65C169.51,291.82,169.22,291.54,169.22,291.17z"/>
		<path d="M174.29,296.24c-0.4,0.72-1.1,1.34-1.96,1.34c-0.97,0-1.51-0.68-1.51-1.6c0-1.45,1.08-2.9,2.6-2.9
			c0.53,0,1.22,0.26,1.22,0.89c0,0.31-0.23,0.61-0.56,0.61c-0.31,0-0.57-0.21-0.57-0.53c0-0.29,0.18-0.35,0.18-0.5
			c0-0.13-0.16-0.17-0.27-0.17c-0.91,0-1.39,2.1-1.39,2.81c0,0.42,0.21,0.83,0.69,0.83c0.59,0,1.03-0.49,1.33-0.95L174.29,296.24z"
			/>
		<path d="M182.26,295.68c0.04,0.26,0.18,1.04,0.31,1.25c0.1,0.16,0.38,0.16,0.56,0.19l-0.09,0.35c-0.5-0.01-0.98-0.04-1.48-0.04
			c-0.47,0-0.93,0.03-1.4,0.04l0.09-0.35c0.32-0.02,0.81,0.01,0.81-0.45c0-0.2-0.04-0.45-0.07-0.65l-0.11-0.69h-2.19
			c-0.17,0.3-0.61,1.03-0.61,1.34c0,0.41,0.48,0.41,0.77,0.45l-0.09,0.35c-0.38-0.01-0.77-0.04-1.16-0.04
			c-0.41,0-0.82,0.03-1.23,0.04l0.09-0.35c0.68-0.06,0.94-0.57,1.26-1.11l1.79-3.09c0.45-0.77,0.97-1.49,1.46-2.26h0.47
			L182.26,295.68z M180.46,292.35h-0.02l-1.48,2.54h1.86L180.46,292.35z"/>
		<path d="M183.85,294.38c0-0.88,0.84-1.31,1.62-1.31c0.5,0,1.22,0.17,1.22,0.8c0,0.24-0.18,0.43-0.43,0.43
			c-0.3,0-0.43-0.27-0.44-0.53c-0.01-0.24-0.08-0.35-0.35-0.35c-0.32,0-0.55,0.16-0.55,0.48c0,0.38,0.31,0.65,0.55,0.88
			c0.4,0.41,0.73,0.81,0.73,1.41c0,0.87-0.89,1.39-1.67,1.39c-0.57,0-1.37-0.27-1.37-0.97c0-0.27,0.16-0.48,0.45-0.48
			c0.25,0,0.49,0.17,0.47,0.45l-0.01,0.17l-0.01,0.16c-0.01,0.22,0.23,0.32,0.42,0.32c0.34,0,0.61-0.29,0.61-0.63
			c0-0.34-0.19-0.54-0.41-0.78C184.33,295.42,183.85,294.94,183.85,294.38z"/>
		<path d="M187.3,294.38c0-0.88,0.84-1.31,1.62-1.31c0.5,0,1.22,0.17,1.22,0.8c0,0.24-0.18,0.43-0.43,0.43
			c-0.3,0-0.43-0.27-0.44-0.53c-0.01-0.24-0.08-0.35-0.35-0.35c-0.32,0-0.55,0.16-0.55,0.48c0,0.38,0.31,0.65,0.55,0.88
			c0.4,0.41,0.73,0.81,0.73,1.41c0,0.87-0.89,1.39-1.67,1.39c-0.57,0-1.37-0.27-1.37-0.97c0-0.27,0.16-0.48,0.45-0.48
			c0.25,0,0.49,0.17,0.47,0.45l-0.01,0.17l-0.01,0.16c-0.01,0.22,0.23,0.32,0.42,0.32c0.34,0,0.61-0.29,0.61-0.63
			c0-0.34-0.19-0.54-0.41-0.78C187.77,295.42,187.3,294.94,187.3,294.38z"/>
		<path d="M190.28,295.83c0-1.42,1.06-2.76,2.52-2.76c1.03,0,1.68,0.76,1.68,1.76c0,1.37-1.1,2.75-2.52,2.75
			C190.92,297.58,190.28,296.85,190.28,295.83z M191.8,294.7c-0.17,0.51-0.4,1.28-0.4,1.83c0,0.31,0.12,0.7,0.51,0.7
			c0.93,0,1.45-2.46,1.45-3.18c0-0.32-0.15-0.64-0.52-0.64C192.24,293.42,191.96,294.24,191.8,294.7z"/>
		<path d="M198.4,296.24c-0.4,0.72-1.1,1.34-1.96,1.34c-0.97,0-1.51-0.68-1.51-1.6c0-1.45,1.08-2.9,2.6-2.9
			c0.53,0,1.22,0.26,1.22,0.89c0,0.31-0.23,0.61-0.56,0.61c-0.31,0-0.57-0.21-0.57-0.53c0-0.29,0.18-0.35,0.18-0.5
			c0-0.13-0.16-0.17-0.27-0.17c-0.91,0-1.39,2.1-1.39,2.81c0,0.42,0.21,0.83,0.69,0.83c0.59,0,1.03-0.49,1.33-0.95L198.4,296.24z"/>
		<path d="M201.49,296.08c-0.31,0.64-0.9,1.49-1.69,1.49c-0.46,0-0.73-0.31-0.73-0.77c0-0.37,0.15-0.8,0.27-1.15l0.22-0.66
			c0.08-0.22,0.31-0.85,0.31-1.07c0-0.14-0.08-0.25-0.22-0.25c-0.29,0-0.69,0.65-0.83,0.89l-0.19-0.11
			c0.35-0.61,0.89-1.39,1.67-1.39c0.42,0,0.74,0.25,0.74,0.7c0,0.33-0.14,0.75-0.25,1.08l-0.41,1.23c-0.05,0.15-0.15,0.42-0.15,0.58
			c0,0.12,0.1,0.25,0.23,0.25c0.35,0,0.66-0.66,0.83-0.91L201.49,296.08z M200.23,291.17c0-0.37,0.29-0.65,0.66-0.65
			c0.35,0,0.64,0.29,0.64,0.65c0,0.35-0.28,0.65-0.64,0.65C200.52,291.82,200.23,291.54,200.23,291.17z"/>
		<path d="M205.54,293.08h1.05l-0.76,2.72c-0.05,0.17-0.16,0.59-0.16,0.75c0,0.12,0.05,0.36,0.19,0.36c0.31,0,0.61-0.68,0.75-0.91
			l0.21,0.09c-0.27,0.64-0.81,1.49-1.58,1.49c-0.39,0-0.68-0.3-0.65-0.68l0.03-0.37l-0.02-0.02c-0.3,0.57-0.83,1.07-1.52,1.07
			c-0.85,0-1.26-0.68-1.26-1.47c0-1.31,1.02-3.03,2.48-3.03c0.48,0,0.82,0.23,1,0.66L205.54,293.08z M203.04,296.31
			c0,0.29,0.14,0.66,0.49,0.66c0.92,0,1.54-2.03,1.54-2.76c0-0.32-0.18-0.58-0.54-0.58C203.64,293.63,203.04,295.59,203.04,296.31z"
			/>
		<path d="M209.19,293.27h0.96l-0.11,0.41h-0.96l-0.47,1.76c-0.07,0.28-0.25,0.89-0.25,1.18c0,0.15,0.04,0.35,0.23,0.35
			c0.34,0,0.69-0.62,0.83-0.86l0.08-0.14l0.19,0.1c-0.31,0.63-0.86,1.51-1.64,1.51c-0.46,0-0.82-0.33-0.82-0.79
			c0-0.44,0.19-1.1,0.3-1.52l0.43-1.58h-0.8l0.09-0.41h0.81l0.52-1.59h1.03L209.19,293.27z"/>
		<path d="M212.64,296.08c-0.31,0.64-0.9,1.49-1.69,1.49c-0.46,0-0.73-0.31-0.73-0.77c0-0.37,0.15-0.8,0.27-1.15l0.22-0.66
			c0.08-0.22,0.31-0.85,0.31-1.07c0-0.14-0.08-0.25-0.22-0.25c-0.29,0-0.69,0.65-0.83,0.89l-0.19-0.11
			c0.35-0.61,0.89-1.39,1.67-1.39c0.42,0,0.74,0.25,0.74,0.7c0,0.33-0.14,0.75-0.25,1.08l-0.41,1.23c-0.05,0.15-0.15,0.42-0.15,0.58
			c0,0.12,0.1,0.25,0.23,0.25c0.35,0,0.66-0.66,0.83-0.91L212.64,296.08z M211.37,291.17c0-0.37,0.29-0.65,0.66-0.65
			c0.35,0,0.64,0.29,0.64,0.65c0,0.35-0.28,0.65-0.64,0.65C211.67,291.82,211.37,291.54,211.37,291.17z"/>
		<path d="M212.98,295.83c0-1.42,1.06-2.76,2.52-2.76c1.03,0,1.68,0.76,1.68,1.76c0,1.37-1.1,2.75-2.52,2.75
			C213.62,297.58,212.98,296.85,212.98,295.83z M214.49,294.7c-0.17,0.51-0.4,1.28-0.4,1.83c0,0.31,0.12,0.7,0.51,0.7
			c0.93,0,1.45-2.46,1.45-3.18c0-0.32-0.15-0.64-0.52-0.64C214.94,293.42,214.66,294.24,214.49,294.7z"/>
		<path d="M218.07,295.83c0.12-0.46,0.42-1.36,0.42-1.82c0-0.11-0.05-0.27-0.19-0.27c-0.27,0-0.57,0.63-0.68,0.85l-0.2-0.08
			c0.27-0.65,0.73-1.44,1.52-1.44c0.45,0,0.65,0.26,0.65,0.7l-0.05,0.58l-0.03,0.19l0.02,0.02c0.33-0.72,0.95-1.49,1.82-1.49
			c0.52,0,0.82,0.28,0.82,0.79c0,0.33-0.14,0.82-0.24,1.15l-0.19,0.59c-0.07,0.21-0.33,0.89-0.33,1.1c0,0.09,0.07,0.22,0.17,0.22
			c0.28,0,0.62-0.66,0.74-0.85l0.2,0.11c-0.29,0.6-0.8,1.4-1.55,1.4c-0.43,0-0.73-0.29-0.73-0.72c0-0.28,0.16-0.84,0.25-1.13
			l0.2-0.61c0.08-0.25,0.33-0.95,0.33-1.19c0-0.13-0.09-0.25-0.22-0.25c-0.88,0.02-1.43,1.85-1.65,2.48l-0.45,1.29h-1.06
			L218.07,295.83z"/>
	</g>
	<g>
		<path d="M355.17,642.39h0.61c1.27,0,2.25-0.19,2.87-1.83h0.78l-1.31,4.96h-0.78c0.22-1.57,0.08-2.28-1.74-2.28h-0.68l-0.86,2.97
			c-0.14,0.46-0.49,1.53-0.49,1.99c0,0.89,0.9,0.7,1.74,0.73l-0.18,0.66c-1.11-0.02-2.23-0.08-3.33-0.08
			c-0.98,0-1.99,0.06-2.95,0.08l0.18-0.66c1.43,0,1.55-0.66,1.9-1.83l2.03-6.88c0.14-0.46,0.49-1.53,0.49-1.99
			c0-0.93-0.9-0.73-1.74-0.77l0.18-0.66c1.06,0.02,2.13,0.08,3.19,0.08c2.25,0,4.52-0.06,6.77-0.08l0.23,3.25h-0.8
			c-0.47-1.89-1.43-2.4-3.38-2.4c-0.7,0-1.04-0.02-1.25,0.13c-0.18,0.14-0.27,0.42-0.45,1.06L355.17,642.39z"/>
		<path d="M368.39,641.25h2.13l-1.53,5.18c-0.1,0.33-0.33,1.12-0.33,1.43c0,0.23,0.1,0.68,0.39,0.68c0.63,0,1.23-1.29,1.51-1.74
			l0.43,0.17c-0.55,1.22-1.64,2.84-3.19,2.84c-0.78,0-1.37-0.58-1.31-1.29l0.06-0.7l-0.04-0.04c-0.61,1.08-1.68,2.03-3.07,2.03
			c-1.72,0-2.54-1.29-2.54-2.8c0-2.49,2.07-5.78,5.01-5.78c0.96,0,1.66,0.44,2.03,1.26L368.39,641.25z M363.36,647.39
			c0,0.56,0.29,1.26,0.98,1.26c1.86,0,3.11-3.86,3.11-5.25c0-0.62-0.37-1.1-1.08-1.1C364.57,642.29,363.36,646.02,363.36,647.39z"/>
		<path d="M374.49,646.18c-0.14,0.46-0.37,1.2-0.37,1.66c0,0.23,0.02,0.7,0.37,0.7c0.59,0,1.25-1.49,1.43-1.97l0.47,0.13
			c-0.49,1.29-1.47,3.11-3.15,3.11c-0.96,0-1.47-0.58-1.47-1.49c0-0.6,0.22-1.39,0.39-1.99l1.84-6.47c0.12-0.41,0.39-1.35,0.39-1.74
			c0-0.66-1.06-0.66-1.56-0.66l0.16-0.58l4.34-0.25L374.49,646.18z"/>
		<path d="M379.91,646.18c-0.14,0.46-0.37,1.2-0.37,1.66c0,0.23,0.02,0.7,0.37,0.7c0.59,0,1.25-1.49,1.43-1.97l0.47,0.13
			c-0.49,1.29-1.47,3.11-3.15,3.11c-0.96,0-1.47-0.58-1.47-1.49c0-0.6,0.22-1.39,0.39-1.99l1.84-6.47c0.12-0.41,0.39-1.35,0.39-1.74
			c0-0.66-1.06-0.66-1.56-0.66l0.16-0.58l4.34-0.25L379.91,646.18z"/>
		<path d="M387.62,649.31l6.14-5.85c0.86-0.83,1.6-1.91,1.6-3.15c0-1.18-0.8-1.93-2.07-1.93c-1.41,0-2.21,0.93-2.21,2.2
			c0,0.21,0.04,0.42,0.04,0.64c0,0.16-0.08,0.27-0.25,0.27c-0.57,0-0.67-1.08-0.67-1.45c0-2.12,1.68-3.4,3.85-3.4
			c2.15,0,3.66,1.33,3.66,3.4c0,2.07-1.58,3.26-3.15,4.4c-0.96,0.7-1.9,1.41-2.86,2.11l-1.25,1.08h2.6c1.68,0,2.52,0.13,3.15-1.66
			h0.72l-1.25,3.59h-8.1L387.62,649.31z"/>
		<path d="M398.65,645.52c0-2.86,2.31-8.89,6.14-8.89c2.39,0,3.38,1.97,3.38,4c0,2.99-2.09,9.18-6.18,9.18
			C399.51,649.81,398.65,647.43,398.65,645.52z M404.95,644.13c0.47-1.33,1.04-4.09,1.04-5.49c0-0.64-0.37-1.24-1.12-1.24
			c-0.88,0-1.37,0.75-1.7,1.41l-1.13,2.9c-0.57,1.47-1.23,4.31-1.23,5.85c0,0.7,0.23,1.47,1.17,1.47c1.1,0,1.68-1.28,1.96-2.11
			L404.95,644.13z"/>
		<path d="M408.29,649.31l6.14-5.85c0.86-0.83,1.6-1.91,1.6-3.15c0-1.18-0.8-1.93-2.07-1.93c-1.41,0-2.21,0.93-2.21,2.2
			c0,0.21,0.04,0.42,0.04,0.64c0,0.16-0.08,0.27-0.25,0.27c-0.57,0-0.67-1.08-0.67-1.45c0-2.12,1.68-3.4,3.85-3.4
			c2.15,0,3.66,1.33,3.66,3.4c0,2.07-1.58,3.26-3.15,4.4c-0.96,0.7-1.9,1.41-2.86,2.11l-1.25,1.08h2.6c1.68,0,2.52,0.13,3.15-1.66
			h0.72l-1.25,3.59h-8.1L408.29,649.31z"/>
		<path d="M422.3,637c0.9-0.25,1.84-0.37,2.76-0.37c1.56,0,3.5,0.6,3.5,2.36c0,1.54-1.58,2.49-2.93,2.99v0.04
			c1.15,0.27,1.96,1.16,1.96,2.32c0,1.99-1.51,3.48-3.29,4.37c-2.01,0.97-3.75,1.12-5.93,1.22l-0.41,0.02l0.18-0.7
			c1.43-0.17,2.97-0.37,4.24-1.02c1.41-0.71,2.56-1.91,2.56-3.5c0-0.99-0.57-1.74-1.68-1.74c-0.76,0-1.45,0.35-1.82,0.35
			c-0.2,0-0.45-0.17-0.45-0.41c0-0.48,0.76-0.54,1.15-0.6c1.33-0.19,4.26-0.91,4.26-2.45c0-0.95-0.94-1.31-1.8-1.31
			c-1.15,0-1.9,0.39-2.95,0.71L422.3,637z"/>
	</g>
	
		<linearGradient id="SVGID_00000038389925653193688630000003914210579628713881_" gradientUnits="userSpaceOnUse" x1="376.131" y1="40.6875" x2="376.131" y2="396.1426">
		<stop  offset="0" style="stop-color:#FFFFFF"/>
		<stop  offset="0.1618" style="stop-color:#E1EEEC"/>
		<stop  offset="0.5108" style="stop-color:#9DCDCA"/>
		<stop  offset="1" style="stop-color:#00A79D"/>
	</linearGradient>
	<path style="fill:url(#SVGID_00000038389925653193688630000003914210579628713881_);" d="M484.82,78.68
		c-19.14-18.73-46.05-36.46-78.91-38H267.44v86.37l82.78-0.02h22.72c12.52,0,48.92,5.55,46.02,28.42
		c-2.9,22.9-35.82,22.93-49.03,22.93h-19.72l-82.78-0.05v217.8h97.79V261.12h60.04c29.99,0,48.5-17.47,59.55-30.49V78.68z"/>
</g>
<g id="guides">
	<g>
		<path class="st7" d="M482.67,1.21v700H0.3v-700H482.67 M483.67,0.21H-0.7v702h484.37V0.21L483.67,0.21z"/>
	</g>
	<g class="st8">
		<path class="st7" d="M483.37,1v700H1V1H483.37 M484.37,0H0v702h484.37V0L484.37,0z"/>
	</g>
</g>
</svg>
